PathFileType	3	(X/Y/Z)	D:\MSKbioDyn\WearableRobot\20250106\S011\S011_static\S011_walking01.trc
DataRate	CameraRate	NumFrames	NumMarkers	Units	OrigDataRate	OrigDataStartFrame	OrigNumFrames
200.0	200.0	4	39	mm	200.0	1401	1867	
Frame#	Time	LFHD			RFHD			LBHD			RBHD			C7			T10			CLAV			STRN			RBAK			LSHO			LUPA			LELB			LFRM			LWRA			LWRB			LFIN			RSHO			RUPA			RELB			RFRM			RWRA			RWRB			RFIN			LASI			RASI			LPSI			RPSI			LTHI			LKNE			LTIB			LANK			LHEE			LTOE			RTHI			RKNE			RTIB			RANK			RHEE			RTOE			
		X1	Y1	Z1	X2	Y2	Z2	X3	Y3	Z3	X4	Y4	Z4	X5	Y5	Z5	X6	Y6	Z6	X7	Y7	Z7	X8	Y8	Z8	X9	Y9	Z9	X10	Y10	Z10	X11	Y11	Z11	X12	Y12	Z12	X13	Y13	Z13	X14	Y14	Z14	X15	Y15	Z15	X16	Y16	Z16	X17	Y17	Z17	X18	Y18	Z18	X19	Y19	Z19	X20	Y20	Z20	X21	Y21	Z21	X22	Y22	Z22	X23	Y23	Z23	X24	Y24	Z24	X25	Y25	Z25	X26	Y26	Z26	X27	Y27	Z27	X28	Y28	Z28	X29	Y29	Z29	X30	Y30	Z30	X31	Y31	Z31	X32	Y32	Z32	X33	Y33	Z33	X34	Y34	Z34	X35	Y35	Z35	X36	Y36	Z36	X37	Y37	Z37	X38	Y38	Z38	X39	Y39	Z39	
1401	6.995	251.66411	1662.7069	-309.25592	238.68161	1657.7246	-176.78876	129.48201	1600.0363	-316.5834	120.37969	1588.0636	-179.7119	78.93087	1465.3981	-242.81006	29.891338	1159.8988	-228.85918	206.57816	1384.5475	-256.7561	239.81329	1185.9414	-261.41907	18.990009	1281.061	-169.06668	123.55331	1413.4597	-427.77493	68.168243	1217.2981	-496.9238	88.925491	1061.759	-507.0188	156.66702	961.78809	-526.31134	203.0455	848.24493	-472.35184	169.07578	847.05774	-532.05707	207.85612	778.89606	-533.63434	151.78305	1406.9558	-72.607498	133.14964	1225.5612	0.39049548	136.5741	1051.6198	2.3064227	205.71373	943.14929	23.56974	257.48264	846.12732	-37.08102	219.89191	834.53046	23.215639	278.97623	774.46301	27.338652	214.44118	943.24109	-376.78082	218.88617	952.00269	-131.46443	14.113384	958.06915	-290.56714	15.208501	955.33856	-218.29616	196.86191	752.03217	-445.54544	268.84634	509.81839	-424.73761	179.99716	400.51462	-429.10931	52.432896	181.24646	-384.78915	-36.116253	164.34785	-319.07755	158.49019	81.743301	-381.24557	174.46922	736.64935	-85.555237	142.35944	480.32443	-131.38181	86.888664	310.06647	-123.58491	70.912071	84.860237	-180.36397	-7.0415192	37.765518	-232.6366	220.27309	50.972752	-204.17174
1402	7	251.49229	1662.71	-309.29816	238.61372	1657.7595	-176.7641	129.34358	1600.0514	-316.51758	120.26008	1588.1044	-179.66826	78.808716	1465.5421	-242.64084	29.291122	1159.9269	-228.37233	206.4776	1384.5062	-256.81897	239.18393	1185.807	-261.34082	18.723169	1281.312	-168.73642	123.10496	1413.4308	-427.78687	66.162094	1217.368	-496.31061	85.343994	1061.7937	-505.77277	151.08549	960.71777	-525.53241	194.97932	846.07111	-471.93777	160.51004	845.78149	-531.32776	198.30084	776.8327	-532.99713	151.91052	1407.0281	-72.553314	134.66861	1225.8187	0.81039757	139.86084	1051.7018	3.0565975	210.74876	944.19708	23.970045	263.08295	847.89673	-36.952068	226.69562	835.75287	23.613531	286.58636	776.59235	27.603449	213.8109	943.40717	-376.44684	217.46407	951.73022	-131.02376	13.232218	958.09216	-290.87558	14.070654	955.38281	-218.72092	199.14314	753.0105	-445.89911	271.31613	511.27405	-424.39343	184.98314	399.58093	-429.20059	62.119629	177.53505	-384.7438	-25.949478	158.09599	-318.74667	170.86888	81.066254	-381.58853	171.85622	736.43713	-85.509087	138.48405	480.28632	-131.21176	82.237137	310.20261	-123.59084	65.597771	84.933853	-180.5114	-12.768646	37.706963	-232.54234	214.60556	50.720272	-203.95772
1403	7.005	251.31451	1662.6686	-309.35428	238.51651	1657.7188	-176.80835	129.13333	1600.0198	-316.49615	120.14954	1588.1033	-179.60437	78.718002	1465.6266	-242.48282	28.542294	1160.2682	-228.3466	206.21324	1384.443	-256.88211	238.65323	1185.6744	-261.18893	18.441866	1281.5775	-168.4268	122.76431	1413.37	-427.76755	64.172241	1217.4667	-495.66733	81.412582	1062.0311	-504.96994	145.30161	959.66766	-524.87433	186.44064	843.92188	-471.49768	152.37294	844.49341	-530.86578	188.17767	774.36609	-533.05316	152.00397	1407.0797	-72.565926	136.142	1225.9963	1.1029246	143.13612	1051.7693	3.7217007	215.73265	945.28149	24.298882	269.90329	850.04761	-36.820404	233.31375	837.14172	23.864433	293.99426	778.8385	27.603964	213.21005	943.53577	-376.13614	215.86821	951.25458	-130.70354	12.294302	958.29797	-291.3562	12.856624	955.46021	-219.18739	200.91907	753.99292	-445.96716	273.97934	512.51532	-424.12411	189.90535	398.73541	-429.34988	71.896713	173.78271	-384.71185	-15.570035	151.92119	-318.39053	183.1841	80.473991	-381.97687	169.46736	736.14203	-85.601402	134.59183	480.1669	-131.17334	77.480576	310.43509	-123.6464	60.198124	84.964142	-180.78337	-18.489187	37.585548	-232.65213	208.96695	50.575123	-203.8632
1404	7.01	251.16405	1662.6016	-309.40057	238.41379	1657.6965	-176.84286	128.92981	1599.9337	-316.47922	120.02929	1588.0648	-179.58736	78.621025	1465.6852	-242.34886	27.796803	1160.4741	-228.06703	205.98889	1384.2931	-256.91074	238.07205	1185.4022	-261.06061	18.157255	1281.7885	-168.10684	122.3577	1413.2838	-427.83362	62.071117	1217.6011	-495.19003	77.734657	1062.1824	-504.06827	139.5248	958.66962	-524.14624	178.49875	842.13788	-470.90182	144.21083	843.46118	-530.31372	178.44637	772.55975	-532.73163	152.1339	1407.1007	-72.528519	137.67949	1226.134	1.4366864	146.47403	1051.8539	4.3632865	220.66872	946.38794	24.585724	276.09207	852.0907	-36.793518	239.87585	838.58063	24.054647	301.58948	781.3764	27.545362	212.58278	943.63245	-375.867	214.72498	951.08856	-130.19005	11.382319	958.43134	-291.83078	11.693359	955.53278	-219.6369	200.01285	755.08905	-446.7684	276.1734	513.91632	-423.96991	194.66875	397.83151	-429.42078	81.707031	170.04831	-384.72562	-4.9079995	145.70641	-318.20792	195.53915	79.979416	-382.42368	166.91689	736.10437	-85.46283	130.90469	480.03632	-131.15154	72.900551	310.48392	-123.70277	54.720352	84.979034	-180.86256	-24.101761	37.832989	-232.60379	203.45625	50.567867	-203.59534
